# xmcd
# 
# Track frame offsets:
#     150
#     9352
#     23347
#     32159
#     54990
# 
# Disc length: 951
# 
# Revision: 4
# Processed by: cddbd v1.5.2PL0 Copyright (c) Steve Scherf et al.
# Submitted via: BonkEnc v1.0.15
# 
DISCID=2903b505
DTITLE=Red Hot Chili Peppers b - The Abbey Road E.P.
DYEAR=1988
DGENRE=Rock
TTITLE0=Fire
TTITLE1=Backwoods
TTITLE2=Catholic School Girls Rule
TTITLE3=Hollywood (Africa)
TTITLE4=True Men Don't Kill Coyotes
EXTD=
EXTT0=
EXTT1=
EXTT2=
EXTT3=
EXTT4=
PLAYORDER=
